<?xml version="1.0" encoding="utf-8"?>
<!-- Generator: Adobe Illustrator 22.0.0, SVG Export Plug-In . SVG Version: 6.00 Build 0)  -->
<svg version="1.1" id="Слой_1" xmlns="http://www.w3.org/2000/svg" xmlns:xlink="http://www.w3.org/1999/xlink" x="0px" y="0px"
	 viewBox="0 0 948.3 213.2" enable-background="new 0 0 948.3 213.2" xml:space="preserve">
<g>
	<g>
		<path fill="#1A9BDB" d="M1.4,211.6c0-1.3,0.5-72.4,0.6-102.4c0-9.3,3.5-12.7,12.6-12.8c9.8-0.1,19.7,0.3,29.5-0.4
			c11.7-0.9,21.3,2.5,29.9,10.7c18.8,17.9,43.3,9.2,56.5-1.5c1.1-0.9,1.9-3.2,1.7-4.6c-0.2-1-2.4-2.2-3.8-2.4c-2.8-0.4-5.6,0-8.5,0
			c-6.2,0-13.3,1.9-18.2-0.5C96.5,95,93.6,88,89.7,83.2c-2-2.5-2.2-4.5-0.2-7.1c3-3.8,5.9-7.7,8.5-11.7c1.8-2.9,4-3.9,7.4-3.8
			c7.5,0.2,15,0.2,22.5-0.1c1.5-0.1,3.5-1.4,4.2-2.6c0.5-0.9-0.6-3.1-1.7-4.1c-1.9-1.8-4.1-3.4-6.5-4.6c-13.7-6.9-27.7-11-42.2-2.5
			c-4.4,2.6-8.3,6.1-12.2,9.5c-5.6,4.9-11.8,7.6-19.5,7.4c-11.7-0.3-23.3,0.1-35,0.1c-9.3,0-12.9-3.6-13-13c-0.1-10.8,0-43.1,0-48.6
			c2-0.1,3.5-0.3,5-0.3c31.7,0,63.3-0.2,95,0.2c9.4,0.1,19,1.2,28.2,3.2c19.7,4.3,36.8,13.4,49,30.2c10.9,15,14.3,32,13.3,50.1
			c-1.2,20-8.6,37.2-24.3,50.1c-5.2,4.3-11,7.8-16.8,11.8c14.9,21.7,29.7,43.3,44.7,65.2c-1.2,0.3-1.6,0.6-2.1,0.6
			c-19.3,0-38.7,0.1-58-0.1c-1.6,0-3.7-1.4-4.7-2.8c-9.5-13.6-19.5-27-28-41.3c-5.6-9.4-12-12.9-23-12.4c-14.6,0.6-19.6,2-18.9,19.2
			c0.5,12.3,0.1,24.6,0.1,37c-1.1,0.2-1.7,0.5-2.3,0.5c-18,0-36,0.1-54,0C3.8,212.9,2.6,212.1,1.4,211.6z"/>
	</g>
</g>
<g>
	<g>
		<path fill="#1A9BDB" d="M285,114.9h-48.4c0.9,4,2.9,7.1,6.2,9.4c3.3,2.3,7.3,3.5,12.1,3.5c3.3,0,6.3-0.5,8.9-1.5
			c2.6-1,5-2.6,7.2-4.7l9.9,10.7c-6,6.9-14.8,10.4-26.4,10.4c-7.2,0-13.6-1.4-19.2-4.2c-5.6-2.8-9.8-6.7-12.8-11.7
			c-3-5-4.5-10.7-4.5-17c0-6.3,1.5-11.9,4.5-17c3-5,7.1-9,12.3-11.8c5.2-2.8,11-4.2,17.4-4.2c6.3,0,11.9,1.3,17,4
			c5.1,2.7,9.1,6.6,12,11.6c2.9,5,4.3,10.9,4.3,17.5C285.4,110.1,285.2,111.8,285,114.9z M241.6,94.3c-2.9,2.4-4.6,5.6-5.2,9.8h31.5
			c-0.6-4-2.4-7.3-5.2-9.7c-2.9-2.4-6.3-3.6-10.5-3.6C248,90.8,244.4,91.9,241.6,94.3z"/>
		<path fill="#1A9BDB" d="M398.8,83.8c4.7,4.7,7.1,11.8,7.1,21.2v36.6h-18.6v-33.8c0-5.1-1.1-8.9-3.2-11.4c-2.1-2.5-5.1-3.7-9-3.7
			c-4.4,0-7.8,1.4-10.4,4.2c-2.5,2.8-3.8,7-3.8,12.6v32.1h-18.6v-33.8c0-10.1-4-15.1-12.1-15.1c-4.3,0-7.7,1.4-10.2,4.2
			c-2.5,2.8-3.8,7-3.8,12.6v32.1h-18.6v-64h17.7V85c2.4-2.7,5.3-4.8,8.7-6.2s7.2-2.1,11.4-2.1c4.5,0,8.6,0.9,12.3,2.7
			c3.6,1.8,6.6,4.4,8.8,7.8c2.6-3.3,5.9-5.9,9.9-7.7c4-1.8,8.4-2.7,13.1-2.7C387.7,76.7,394.1,79.1,398.8,83.8z"/>
		<path fill="#1A9BDB" d="M435.6,138.4c-5.4-2.8-9.5-6.7-12.6-11.7c-3-5-4.5-10.7-4.5-17c0-6.3,1.5-12,4.5-17c3-5,7.2-8.9,12.6-11.7
			c5.4-2.8,11.4-4.2,18.1-4.2c6.7,0,12.8,1.4,18.1,4.2c5.3,2.8,9.5,6.7,12.5,11.7c3,5,4.5,10.7,4.5,17c0,6.3-1.5,12-4.5,17
			c-3,5-7.2,8.9-12.5,11.7c-5.3,2.8-11.3,4.2-18.1,4.2C447,142.6,440.9,141.2,435.6,138.4z M465.4,122.6c3.1-3.2,4.6-7.5,4.6-12.9
			c0-5.4-1.5-9.7-4.6-12.9c-3.1-3.2-7-4.8-11.7-4.8s-8.7,1.6-11.8,4.8c-3.1,3.2-4.6,7.5-4.6,12.9c0,5.4,1.5,9.7,4.6,12.9
			c3.1,3.2,7,4.8,11.8,4.8S462.4,125.8,465.4,122.6z"/>
		<path fill="#1A9BDB" d="M559.3,83.9c4.9,4.8,7.3,11.8,7.3,21.2v36.6h-18.6v-33.8c0-5.1-1.1-8.9-3.3-11.4c-2.2-2.5-5.4-3.7-9.6-3.7
			c-4.7,0-8.4,1.4-11.2,4.3c-2.8,2.9-4.2,7.2-4.2,12.9v31.6h-18.6v-64h17.7v7.5c2.5-2.7,5.5-4.8,9.2-6.2c3.6-1.5,7.7-2.2,12-2.2
			C548,76.7,554.4,79.1,559.3,83.9z"/>
		<path fill="#1A9BDB" d="M624.7,138.6c-1.8,1.3-4.1,2.4-6.7,3c-2.7,0.7-5.5,1-8.4,1c-7.6,0-13.5-1.9-17.7-5.8
			c-4.2-3.9-6.2-9.6-6.2-17.1V93.4h-9.9V79.1h9.9V63.5h18.6v15.6h15.9v14.3h-15.9v26.1c0,2.7,0.7,4.8,2.1,6.2
			c1.4,1.5,3.3,2.2,5.9,2.2c2.9,0,5.4-0.8,7.5-2.4L624.7,138.6z"/>
		<path fill="#1A9BDB" d="M693.3,83.9c4.9,4.8,7.3,11.8,7.3,21.2v36.6H682v-33.8c0-5.1-1.1-8.9-3.3-11.4c-2.2-2.5-5.4-3.7-9.6-3.7
			c-4.7,0-8.4,1.4-11.2,4.3c-2.8,2.9-4.2,7.2-4.2,12.9v31.6h-18.6v-64h17.7v7.5c2.5-2.7,5.5-4.8,9.2-6.2c3.6-1.5,7.7-2.2,12-2.2
			C682,76.7,688.4,79.1,693.3,83.9z"/>
		<path fill="#1A9BDB" d="M718.3,65.8c-2.1-2-3.2-4.4-3.2-7.4c0-2.9,1.1-5.4,3.2-7.4c2.1-2,4.9-3,8.3-3c3.4,0,6.2,1,8.3,2.9
			c2.1,1.9,3.2,4.3,3.2,7.1c0,3.1-1.1,5.7-3.2,7.7c-2.1,2-4.9,3-8.3,3C723.2,68.7,720.5,67.8,718.3,65.8z M717.4,77.7h18.6v64h-18.6
			V77.7z"/>
		<path fill="#1A9BDB" d="M780.7,116.6l-8.9,8.8v16.3h-18.6V53.4h18.6v50l27.1-25.7H821l-26.7,27.1l29,36.9h-22.5L780.7,116.6z"/>
		<path fill="#1A9BDB" d="M841.3,138.4c-5.4-2.8-9.5-6.7-12.6-11.7c-3-5-4.5-10.7-4.5-17c0-6.3,1.5-12,4.5-17c3-5,7.2-8.9,12.6-11.7
			c5.4-2.8,11.4-4.2,18.1-4.2c6.7,0,12.8,1.4,18.1,4.2c5.3,2.8,9.5,6.7,12.5,11.7c3,5,4.5,10.7,4.5,17c0,6.3-1.5,12-4.5,17
			c-3,5-7.2,8.9-12.5,11.7c-5.3,2.8-11.3,4.2-18.1,4.2C852.7,142.6,846.6,141.2,841.3,138.4z M871.1,122.6c3.1-3.2,4.6-7.5,4.6-12.9
			c0-5.4-1.5-9.7-4.6-12.9c-3.1-3.2-7-4.8-11.7-4.8s-8.7,1.6-11.8,4.8c-3.1,3.2-4.6,7.5-4.6,12.9c0,5.4,1.5,9.7,4.6,12.9
			c3.1,3.2,7,4.8,11.8,4.8S868.1,125.8,871.1,122.6z"/>
		<path fill="#1A9BDB" d="M927.2,79.1h16.4v14.3h-15.9v48.3h-18.6V93.4h-9.9V79.1h9.9v-2.9c0-7.3,2.2-13.1,6.5-17.4
			c4.3-4.3,10.4-6.4,18.3-6.4c2.8,0,5.4,0.3,7.9,0.9c2.5,0.6,4.6,1.4,6.2,2.6l-4.9,13.4c-2.1-1.5-4.6-2.3-7.5-2.3
			c-5.6,0-8.4,3.1-8.4,9.3V79.1z"/>
	</g>
</g>
</svg>
