<?xml version="1.0" encoding="utf-8"?>
<!-- Generator: Adobe Illustrator 22.0.0, SVG Export Plug-In . SVG Version: 6.00 Build 0)  -->
<svg version="1.1" id="Capa_1" fill="#ec4e4f" xmlns="http://www.w3.org/2000/svg" xmlns:xlink="http://www.w3.org/1999/xlink" x="0px" y="0px"
	 viewBox="0 0 512 512" enable-background="new 0 0 512 512" xml:space="preserve">
<g>
	<path d="M509,186l-26.9-35.8l-14.9,104.5c-1.4,9.6-5.9,18.6-12.7,25.5L270.6,464c-16,16-37.4,24.9-60.1,24.9
		c-6.8,0-13.5-0.8-19.9-2.3c9.8,15.3,26.9,25.5,46.4,25.5h220c30.3,0,55-24.7,55-55V195C512,191.8,510.9,188.6,509,186z"/>
	<circle cx="309.5" cy="234.2" r="15"/>
	<circle cx="139.8" cy="234.2" r="15"/>
	<path d="M249.4,442.8L433.3,259c2.3-2.3,3.8-5.3,4.2-8.5L458.7,102c0.7-4.7-0.9-9.4-4.2-12.7l-31.8-31.8l-42.4,42.4l10.6,10.6
		c5.9,5.9,5.9,15.4,0,21.2c-2.9,2.9-6.8,4.4-10.6,4.4s-7.7-1.5-10.6-4.4l-42.4-42.4c-5.9-5.9-5.9-15.4,0-21.2
		c5.9-5.9,15.4-5.9,21.2,0L359,78.6l42.4-42.4L369.6,4.4c-3.3-3.3-8.1-4.9-12.7-4.2L208.4,21.4c-3.2,0.5-6.2,1.9-8.5,4.2L16.1,209.5
		c-21.4,21.4-21.4,56.3,0,77.8l155.6,155.6c10.7,10.7,24.8,16.1,38.9,16.1S238.7,453.5,249.4,442.8L249.4,442.8z M309.5,189.2
		c24.8,0,45,20.2,45,45s-20.2,45-45,45s-45-20.2-45-45S284.7,189.2,309.5,189.2L309.5,189.2z M139.8,279.2c-24.8,0-45-20.2-45-45
		s20.2-45,45-45s45,20.2,45,45S164.6,279.2,139.8,279.2z M189.3,355.3c-1.6,0-3.2-0.2-4.7-0.8c-7.9-2.6-12.1-11.1-9.5-19l70.7-212.1
		c2.6-7.9,11.1-12.1,19-9.5c7.9,2.6,12.1,11.1,9.5,19L203.6,345C201.5,351.3,195.6,355.3,189.3,355.3z"/>
	<path d="M454.5,25.6c5.9-5.9,5.9-15.4,0-21.2c-5.9-5.9-15.4-5.9-21.2,0l-31.8,31.8l21.2,21.2L454.5,25.6z"/>
</g>
</svg>
