<?xml version="1.0" encoding="utf-8"?>
<!-- Generator: Adobe Illustrator 22.0.0, SVG Export Plug-In . SVG Version: 6.00 Build 0)  -->
<svg version="1.1" id="Capa_1" fill="#ec4e4f" xmlns="http://www.w3.org/2000/svg" xmlns:xlink="http://www.w3.org/1999/xlink" x="0px" y="0px"
	 viewBox="0 0 512 512" enable-background="new 0 0 512 512" xml:space="preserve">
<g>
	<path d="M271,30c-8.3,0-15,6.7-15,15s6.7,15,15,15c91,0,165,75,165,166s-74,166-165,166c-8.3,0-15,6.7-15,15s6.7,15,15,15
		c107.5,0,195-88.5,195-196S378.5,30,271,30z"/>
	<path d="M233.1,228.2C217.5,237.9,196,251,196,286c0,8.3,6.7,15,15,15h60c8.3,0,15-6.7,15-15s-6.7-15-15-15h-42
		c3.5-6.8,10.1-11.2,19.9-17.2C264.5,244.1,286,231,286,196c0-24.8-20.2-45-45-45s-45,20.2-45,45c0,8.3,6.7,15,15,15s15-6.7,15-15
		s6.7-15,15-15s15,6.7,15,15C256,213.4,248.6,218.7,233.1,228.2z"/>
	<path d="M335.7,151.8c-7.9-2.6-16.4,1.6-19,9.5l-30,90c-1.5,4.6-0.8,9.6,2.1,13.5c2.8,3.9,7.4,6.2,12.2,6.2h45v15
		c0,8.3,6.7,15,15,15s15-6.7,15-15v-60c0-8.3-6.7-15-15-15s-15,6.7-15,15v15h-24.2l23.4-70.3C347.8,162.9,343.6,154.4,335.7,151.8z"
		/>
	<path d="M46,226c0,109.1,31.5,226,90,226h30h45c8.3,0,15-6.7,15-15v-91c0-8.3-6.7-15-15-15h-63c-6-22.8-12-57.4-12-105
		s6-82.2,12-105h63c8.3,0,15-6.7,15-15V15c0-8.3-6.7-15-15-15h-75C77.5,0,46,116.9,46,226z"/>
</g>
</svg>
