<?xml version="1.0" encoding="utf-8"?>
<!-- Generator: Adobe Illustrator 22.0.0, SVG Export Plug-In . SVG Version: 6.00 Build 0)  -->
<svg version="1.1" fill="#5a9ad8" id="Capa_1" xmlns="http://www.w3.org/2000/svg" xmlns:xlink="http://www.w3.org/1999/xlink" x="0px" y="0px"
	 viewBox="0 0 384 384" enable-background="new 0 0 384 384" xml:space="preserve">
<g>
	<g>
		<path d="M192,0C112.6,0,48,64.6,48,144c0,74.3,118.2,218.1,131.7,234.3c3,3.6,7.5,5.7,12.3,5.7s9.2-2.1,12.3-5.7
			C217.8,362.1,336,218.3,336,144C336,64.6,271.4,0,192,0z M192,342.6C152.2,292.5,80,191.7,80,144c0-61.8,50.2-112,112-112
			s112,50.2,112,112C304,191.7,231.8,292.5,192,342.6z"/>
	</g>
</g>
<g>
	<g>
		<path d="M192,64c-44.1,0-80,35.9-80,80s35.9,80,80,80c21.7,0,42.1-8.6,57.3-24.1c6.2-6.3,6-16.5-0.3-22.6
			c-6.3-6.2-16.5-6-22.6,0.3C217.2,186.9,205,192,192,192c-26.5,0-48-21.5-48-48s21.5-48,48-48s48,21.5,48,48c0,8.8,7.2,16,16,16
			s16-7.2,16-16C272,99.9,236.1,64,192,64z"/>
	</g>
</g>
</svg>
