<?xml version="1.0" encoding="utf-8"?>
<!-- Generator: Adobe Illustrator 22.0.0, SVG Export Plug-In . SVG Version: 6.00 Build 0)  -->
<svg version="1.1" id="Capa_1" fill="#5a9ad8" xmlns="http://www.w3.org/2000/svg" xmlns:xlink="http://www.w3.org/1999/xlink" x="0px" y="0px"
	 viewBox="0 0 565.3 512" enable-background="new 0 0 565.3 512" xml:space="preserve">
<path d="M530.4,262V137.5c0-26.5-21.5-48-48-48h-338c-0.5-0.1-0.9-0.1-1.4,0H60.3c-26.5,0-48,21.5-48,48v237
	c0,15.2,7.3,29.6,19.6,38.7l1,0.6c8.1,5.7,17.6,8.6,27.4,8.6h422c9.8,0,19.3-3,27.4-8.6l0.9-0.6l0.1-0.1
	c12.3-9.1,19.6-23.5,19.6-38.7v-50.4l-0.1-0.3c-1.1-4.9-6.1-14-17.1-14c-0.2,0-0.3,0-0.5,0c-13.3,0.6-17.9,11.4-18,11.9l-0.2,0.5
	v49.7L347.6,254.9l146.8-114.2V264l0.3,0.6c0.2,0.4,5.3,10,17,10c0.1,0,0.1,0,0.2,0c12.2-0.1,16.4-5.5,17.8-8.5h0.7
	c0-0.9,0-1.7,0.1-2l0.2-2L530.4,262z M224.3,277.6l17.4,13.6c8.6,6.7,18.8,10.2,29.5,10.2c10.7,0,21.2-3.6,29.5-10.2l17.4-13.6
	l136.6,108.9H87.7L224.3,277.6z M278.7,263c-4.3,3.4-10.4,3.4-14.8,0l-28.6-22.4l-147.9-115h87.7c25.2,0,64.6,0,99.5,0.1
	c34.9,0,67,0.1,81,0c3.8,0,6,0,7.3-0.1v0h92.5l-147.9,115L278.7,263z M195.1,254.9l-146.9,117V140.7L195.1,254.9z"/>
</svg>
