<?xml version="1.0" encoding="utf-8"?>
<!-- Generator: Adobe Illustrator 22.0.0, SVG Export Plug-In . SVG Version: 6.00 Build 0)  -->
<svg version="1.1" fill="#4c536d" id="Capa_1" xmlns="http://www.w3.org/2000/svg" xmlns:xlink="http://www.w3.org/1999/xlink" x="0px" y="0px"
	 viewBox="0 0 508.8 531.8" enable-background="new 0 0 508.8 531.8" xml:space="preserve">
<path d="M467.6,345.4l-54.8-55c-10.6-11-23.4-16.9-37-16.9c-13.5,0-26.4,5.8-37.4,16.7l-29.3,29.2c-0.8-0.4-1.5-0.8-2.2-1.2
	c-0.9-0.4-1.7-0.9-2.6-1.3c-3.5-1.8-6.8-3.4-9.5-5.1c-29.2-18.5-55.8-42.8-81.2-74c-11.4-14.4-19.2-26.4-25.1-38.7
	c6.6-6.1,12.8-12.4,18.8-18.5l2.1-2.2c1.4-1.4,2.8-2.8,4.2-4.3c1.4-1.4,2.8-2.8,4.2-4.2c11.2-11.2,17.1-24.2,17.1-37.8
	c0-13.6-5.9-26.6-17.1-37.8L196.5,73l-0.7-0.3c-0.6-0.3-13.6-6-21.8,2.6c-9.4,9.9-1,24.6-0.6,25.2l0.3,0.5l18.9,18.9
	c8.9,8.9,8.9,15.8,0,24.6c-1,1-2,2-2.9,2.9c-1.9,1.9-3.7,3.8-5.6,5.6l-0.1,0.1c-8.9,9.1-16.5,16.7-24.9,24.2l-0.1,0.1
	c-0.2,0.2-0.5,0.4-0.9,0.9c-9.9,10.1-8.2,20.2-6,27l0.4,1.2c7.2,17.4,17.3,34,32.9,53.8l0.3,0.3c27.9,34.4,57.3,61.1,89.7,81.6
	c4.3,2.7,8.6,4.9,12.7,6.9c3.5,1.8,6.8,3.4,9.5,5.1l0.3,0.2c0.1,0,0.2,0.1,0.2,0.2c0.3,0.2,0.6,0.4,1,0.6c4,2,7.9,3,11.9,3
	c6.7,0,12.9-2.8,18.4-8.2l34.2-34.2c2.8-2.8,7.2-6.2,11.9-6.2c5,0,9.1,3.7,11.1,5.8l55.5,55.5c8.5,8.4,8.5,16.1,0,25
	c-3.1,3.4-6.3,6.5-9.8,9.8l-2.3,2.2c-6.4,6.1-13.2,12.8-19.6,20.3c-9.3,10-19.9,14.4-34.2,14.4c-1.5,0-3,0-4.3-0.1
	c-29-1.9-56-13.2-76.3-23c-56.2-27.2-105.4-65.8-146.2-114.5c-33.7-40.6-56.3-78.3-71.2-118.6c-9-24.1-12.4-42.9-10.9-60.6
	c0.9-10.6,5-19.4,12.5-26.9l34-34c4.1-3.8,8.3-5.8,12.1-5.8c1.7,0,2.7,0.5,4.3,1.4c1.4,0.7,3.2,1.7,5.6,2.1
	c5.2,0.9,14.6-2.4,18.1-9.7c5.5-10.9-0.2-20.1-0.4-20.5l-0.5-0.9l-0.9-0.5c-8-5.1-17.2-7.8-26.4-7.8c-13.4,0-26.2,5.5-37.2,16
	L54.2,73.4C40.7,87,33,103.6,31.3,122.7c-2.5,30,6.3,57.8,13.1,76.1c16.4,44.3,41,85.3,77.3,128.9c44.3,52.8,97.5,94.5,158.2,123.9
	c23.5,11.1,54.9,24.2,89.7,26.4c2.3,0.1,4.5,0.2,6.5,0.2c24.4,0,45-8.8,61-26.3l0.4-0.5l0-0.1c0.1-0.1,0.2-0.2,0.3-0.3
	c4.6-5.6,10-10.7,15.6-16.2l1.4-1.3c5.2-5,9.4-9.1,13.1-13c10.7-11.1,16.4-24.2,16.4-37.7C484.3,369.2,478.5,356.3,467.6,345.4z"/>
</svg>
